<?xml version="1.0" encoding="UTF-8"?>
<svg xmlns="http://www.w3.org/2000/svg" xmlns:xlink="http://www.w3.org/1999/xlink" viewBox="0 0 1459.6 1652.05">
  <defs>
    <style>
      .cls-1 {
        fill: none;
      }

      .cls-2 {
        mix-blend-mode: screen;
        opacity: .54;
      }

      .cls-2, .cls-3, .cls-4, .cls-5 {
        fill: #fdcdad;
      }

      .cls-6 {
        clip-path: url(#clippath);
      }

      .cls-7 {
        fill: #f7a397;
      }

      .cls-8 {
        fill: #da9a83;
      }

      .cls-9 {
        fill: #3f3b3c;
      }

      .cls-10, .cls-11 {
        fill: #6f8fc6;
      }

      .cls-12 {
        fill: #4b79bc;
      }

      .cls-11 {
        opacity: .21;
      }

      .cls-11, .cls-13, .cls-4, .cls-5 {
        mix-blend-mode: multiply;
      }

      .cls-13 {
        fill: #addee2;
        opacity: .32;
      }

      .cls-4 {
        opacity: .46;
      }

      .cls-5 {
        opacity: .84;
      }

      .cls-14 {
        opacity: .45;
      }

      .cls-15 {
        isolation: isolate;
      }
    </style>
    <clipPath id="clippath">
      <rect class="cls-1" width="1459.6" height="1652.05"/>
    </clipPath>
  </defs>
  <g class="cls-15">
    <g id="Warstwa_2" data-name="Warstwa 2">
      <g id="Layer_1" data-name="Layer 1">
        <g class="cls-6">
          <g>
            <g>
              <g>
                <path class="cls-3" d="M949.52,1408.05c-1.74-2.17-3.7-4.1-5.85-5.72-5.93-1.61-11.03-1.98-12.23-1.68,0,0-3.06-22.16-28.65-17.74,0,0-6.59-14.74-36.41-8.89,0,0-5.83-10.62-42.01-.03,0,0-27.29-67.93-14.65-173.2,12.51-104.21,27.42-211.36,52.77-313.1,37.54-150.68,79.52-292.9,73.77-449.97-5.95-162.57-36.84-323.39-36.84-486.29,0-51.72,36.74-249.5,77.22-468.76H462.32c9.02,67.61,19.28,145.32,31.22,226.44,14.74,100.11,38.5,198.81,49.54,299.48,11.66,106.38-7.77,203.53-14.99,308.77-10.3,150.21-5.79,308.52,41.51,452.65,39.99,121.86,50.46,266.02,52.12,394.9,.95,73.67,21.61,147.46-16.72,213.86-8.85,15.32-20.51,32.83-13.66,49.15,3.3,7.85,20.09,48.7,16.31,62.3-8.83,31.76-32.17,114.42,3.12,140.87,35.29,26.48,79.54,24.16,132.48,8.28,52.95-15.89,72.62-90.92,109.67-105.05,37.06-14.11,68.83-44.11,75.88-65.29,0,0,1.77-9.7,12.36-11.47,7.81-1.3,15.27-7.15,20.17-16.3,1.12-5.97,1.01-12.01-1.47-17.66-2.39-5.43-6.65-10.93-10.35-15.55Z"/>
                <path class="cls-4" d="M493.54-290.9c-11.94-81.12-22.2-158.82-31.22-226.44h47.74c1.23,45.82,8.16,91.56,15.78,136.62,4.97,29.4,10.42,58.73,15.1,88.18,5.15,32.34,8.22,65.05,12.99,97.46,9.76,66.32,21.05,132.37,31.14,198.63,9.9,65,16.25,130.92,10.69,196.64-2.9,34.31-10.75,67.52-16.37,101.4-5.17,31.17-8.7,62.6-10.69,94.13-4.02,63.53-1.76,127.31,4.4,190.63,12.34,126.85,39.78,251.51,61.39,376.95,20.68,120.06,40.34,248.04,10.75,368.31-8.97,26.36-19.05,52.4-23.71,79.95-3.04,17.96-3.55,36.11-1.31,54.2,1.92,15.46,.59,30.27-1.93,45.61-4.14,25.13-12.46,53.92-3.45,78.91,9.31,25.82,37.85,36.69,63.39,37.57,29.23,1,61.65-8.61,83.23-28.92,26.02-24.49,24.7-66.55,27.22-99.52,.99-12.93,2.01-25.89,4.03-38.71,1.52-9.61,4.02-19,5.04-28.69,2.21-21.01-.45-42.11-4.8-62.68-4.55-21.52-10.9-42.63-15.05-64.23-4.7-24.43-4.55-49.27-4.42-74.07,.51-101,13.74-201.6,32.79-300.65,18.38-95.52,39.55-190.25,50.85-287,11.64-99.67,12.1-199.41,4.44-299.4-7.72-100.69-24.52-201.15-26.93-302.17-2.43-102.29,20.73-203.55,41.59-303.13,17.79-84.91,36.32-169.88,47.09-256h53.31c-40.48,219.26-77.22,417.04-77.22,468.76,0,162.9,30.89,323.73,36.84,486.29,5.75,157.08-36.23,299.3-73.77,449.97-25.35,101.74-40.26,208.89-52.77,313.1-12.64,105.27,14.65,173.2,14.65,173.2,36.18-10.59,42.01,.03,42.01,.03,29.82-5.85,36.41,8.89,36.41,8.89,25.59-4.42,28.65,17.74,28.65,17.74,1.2-.3,6.31,.07,12.23,1.68,2.15,1.62,4.11,3.55,5.85,5.72,3.7,4.62,7.96,10.12,10.35,15.55,2.49,5.65,2.6,11.69,1.47,17.66-4.9,9.15-12.37,15-20.17,16.3-10.58,1.76-12.36,11.47-12.36,11.47-7.05,21.18-38.82,51.18-75.88,65.29-37.06,14.13-56.73,89.16-109.67,105.05-52.94,15.88-97.19,18.2-132.48-8.28-35.29-26.46-11.95-109.11-3.12-140.87,3.78-13.59-13.02-54.44-16.31-62.3-6.85-16.31,4.82-33.83,13.66-49.15,38.33-66.39,17.67-140.18,16.72-213.86-1.66-128.88-12.13-273.04-52.12-394.9-47.3-144.13-51.81-302.45-41.51-452.65,7.22-105.24,26.65-202.39,14.99-308.77-11.04-100.68-34.8-199.37-49.54-299.48Z"/>
                <path class="cls-4" d="M936.25,437.71c1.83,50.03-1.21,98.55-7.38,146.32,.93-35.66,.47-71.36-1.21-106.99-2.26-47.98-9-95.53-17.27-142.8-16.8-96.05-39.78-191.76-41.6-289.7-.9-48.78,5.27-97.21,10.63-145.61,5.5-49.66,11.6-99.26,18.79-148.71,13.07-90,29.71-179.6,53.01-267.55h25.41c-40.48,219.26-77.22,417.04-77.22,468.76,0,162.9,30.89,323.73,36.84,486.29Z"/>
                <path class="cls-4" d="M545.66,651.4c-3.66,0-3.65,5.67,0,5.67s3.65-5.67,0-5.67Z"/>
                <path class="cls-4" d="M479.42-517.34c.04,.39,.06,.79,.1,1.18,7.4,78.95,20.04,157.29,32.89,235.5,13.05,79.46,26.37,158.95,34.67,239.07,8.29,80.01,11.05,160.33,3.51,240.52-3.82,40.6-10.92,80.47-18.06,120.58-2.55,14.34-4.85,28.73-7.01,43.14,.71-15.16,1.54-30.28,2.57-45.3,7.22-105.24,26.65-202.39,14.99-308.77-11.04-100.68-34.8-199.37-49.54-299.48-11.94-81.12-22.2-158.82-31.22-226.44h17.1Z"/>
                <path class="cls-8" d="M827.15,1382.08c-2.47-13.84-6.4-27.47-9.64-41.15-3.4-14.36-7.21-28.62-10.06-43.1-.04-.2-.39-.02-.36,.16,2.28,14.77,4.53,29.57,7.52,44.22,2.75,13.47,6.13,26.92,7.95,40.56,.92,6.88,1.27,13.82,.52,20.73-.71,6.56-3.41,12.29-5.12,18.59-1.44,5.28-2.29,10.69-2.81,16.13,.99,5.12,2.3,10.18,3.91,15.14,.41-4.66,.21-9.47,.69-14.07,.7-6.65,2.06-13.13,4.12-19.49,2.02-6.21,4.18-12.07,4.66-18.65,.46-6.35-.26-12.82-1.38-19.06Z"/>
                <g>
                  <path class="cls-8" d="M952.88,1416.5c-1.91-.9-4.38-1.04-6.85-.84-1.6,.13-3.25,.48-4.91,.91-1.74,.69-3.41,1.46-4.86,2.18-4.68,2.32-8.82,5.48-13.36,8.02-1.69,.95-3.44,1.77-5.18,2.61-.86,.95-1.81,1.81-2.62,2.8-.19,.23-.37,.46-.55,.7,2.29-.76,4.55-1.58,6.76-2.6,4.18-1.93,7.88-4.68,11.89-6.92,6.78-3.8,15.17-7.99,22.66-4.55-.8-.96-1.76-1.74-2.97-2.31Z"/>
                  <path class="cls-8" d="M922.4,1397.07c-2.6,.38-5.18,.93-7.69,1.67-8.65,2.55-17.25,7.73-26.37,8.65,.64,.37,1.32,.67,1.98,1.01,2.62-.15,5.2-.54,7.85-1.33,4.39-1.33,8.62-3.09,12.94-4.62,3.66-1.29,7.48-2.37,11.34-2.89,1.99-.27,4.09-.39,6.07,0,1.67,.32,3,1.4,4.65,1.63,.3,.04,.63-.11,.91-.33-3.59-2.15-7.55-3.54-11.68-3.8Z"/>
                  <path class="cls-8" d="M901.18,1381.82c-.63-.37-1.28-.68-1.92-1.02-2.3-.28-4.61-.42-6.95-.21-4.01,.36-7.65,1.71-11.38,3.13-4.23,1.6-8.44,3.29-12.72,4.75-3.29,1.12-6.66,2.35-10.08,3.17,1.56,.2,3.13,.27,4.71,.26,.99-.17,1.97-.27,2.96-.52,4.05-1,8.06-2.36,11.97-3.8,3.92-1.44,7.85-3.22,12-3.89,4.14-.68,8.38-.15,12.47,.58,.59,.1,1.27-.25,1.77-.73-.94-.58-1.88-1.16-2.83-1.72Z"/>
                  <path class="cls-8" d="M839.65,1376.69c2.71-.79,5.41-1.69,8.14-2.4,1.55-.4,3.1-.74,4.66-.94,3.03-.89,6.11-1.65,9.29-1.74,1.47-.04,2.91,.13,4.32,.38-.1-.08-.21-.17-.31-.25-.45-.37-.9-.74-1.35-1.11-.37-.06-.74-.11-1.08-.17-1.58-.31-3.17-.6-4.78-.75-3.27-.31-6.43,.22-9.58,1.06-5.24,1.4-10.3,3.4-15.38,5.28,1.88,.76,3.95,.86,6.07,.65Z"/>
                </g>
                <path class="cls-8" d="M620.53,105.26c-.84-10.12-3.23-20.25-7.38-29.54-2.24-5.02-4.78-9.89-7.63-14.59-3.11-5.13-6.41-10.72-10.95-14.72-1.42-1.25-4.64,1.05-3.99,2.8,2.01,5.37,5.45,10.26,8.12,15.33,2.58,4.9,4.89,9.91,6.85,15.09,3.42,8.99,6.02,18.22,6.74,27.84,.73,9.7,0,19.44-1.94,28.96-2.38,11.73-6.74,22.81-10.66,34.07-1.12,3.22,3.74,2.8,4.86,.71,10.54-19.67,17.84-43.43,15.97-65.95Z"/>
                <path class="cls-8" d="M837.41,20.01c.84-2.23-2.52-1.82-3.32-.49-8.77,14.64-13.08,31.72-14.39,48.65-1.29,16.68-.92,34.72,3.83,50.86,.84,2.84,5.56,.58,5.48-1.78-.54-16.53-3.03-32.81-2.07-49.4,.96-16.56,4.61-32.35,10.48-47.85Z"/>
              </g>
              <path class="cls-2" d="M804.39,778.41c4.58-42.39,8.34-84.91,12.3-127.37,7.99-85.65,8.07-172.12,7.95-258.09-.03-23.49-1.41-46.96-1.62-70.46-.1-10.89-.06-21.77-.12-32.66-.07-11.14,1.61-21.5,2.58-32.48,.35-3.92,7.7-.83,7.58,2.46-.4,10.91,4.01,22.4,6.59,32.98,2.58,10.54,3.87,20.8,4.99,31.58,2.18,21.11,5.19,42.1,6.37,63.3,1.17,21.04,1.18,42.05,1.01,63.11-.16,21.14,.21,42.33-1,63.44-4.89,85.31-19.75,169.13-31.27,253.64-3.07,22.48-6.36,44.93-9.46,67.4-3.15,22.83-5.8,45.49-13.56,67.31-1.05,2.96-5.75,.29-5.27-2.31,7.39-40.26,8.55-81.24,12.93-121.86Z"/>
              <path class="cls-3" d="M936.99,1453.02c2.55-1.62,5.55-2.93,7.6-5.21,.97-1.08,1.71-2.32,2.28-3.64,.66-1.52,1.47-2.93,2.21-4.41,2.59-5.2,2.49-11.45,1.74-17.08-.1-.76,.6-1.23,1.27-1.26,.88-.04,1.6,.55,2.11,1.2,4.83,6.25,4.75,14.31,1.4,21.24-.8,1.66-1.74,3.01-3.2,4.18-1.32,1.05-2.8,1.96-4.24,2.82-3.21,1.91-6.46,3.6-10.3,3.53-.52,0-1.59-.89-.85-1.36Z"/>
              <path class="cls-3" d="M928.83,1415.15c.52-.64,1.06-1.21,1.63-1.8,.4-.41,.82-.8,1.24-1.19,.16-.14,.31-.29,.46-.43,.02-.02,0,0,.02-.02,.03-.03,.03-.04,.1-.11,1.05-1.07,1.92-2.28,2.7-3.55,.03-.06,.09-.16,.14-.25,.02-.06,.05-.13,.06-.19,.08-.27,.09-.55,.17-.82,0-.02,0,0,0-.01,0-.02,0-.02-.01-.06-.01-.13-.04-.28-.04-.41,0-.15,.01-.3,.03-.44-.01,.19-.02,.21-.01,.07,0-.17-.01-.33,.03-.5,.09-.3,.38-.51,.7-.49,1.65,.1,3.1,1.77,3.54,3.28,.19,.67,.28,1.36,.23,2.05-.06,.97-.33,1.66-.75,2.53-.57,1.2-1.58,2.21-2.51,3.14-1.15,1.14-2.32,2.07-3.74,2.86-.75,.41-1.48,.82-2.26,1.18,.05-.02,.12-.05,.12-.05-.08,.04-.15,.07-.23,.11-.14,.07-.29,.14-.43,.21-.36,.17-.7,.24-1.08,.33-1.08,.28-2.42-.75-2.23-1.9,.23-1.39,1.22-2.46,2.08-3.52Z"/>
              <path class="cls-3" d="M912.04,1393.66c.3-.28,.64-.5,.96-.75,.38-.29,.77-.48,1.19-.72,.68-.39,1.28-.9,1.86-1.43,.27-.3,.53-.61,.71-.99-.07,.15-.13,.29-.2,.44,.09-.21,.19-.42,.29-.62,.04-.09,.06-.18,.1-.27,.01-.02,0,.01,.01,0-.02-.14-.04-.31-.03-.43v-.02c-.03-.1-.07-.19-.1-.29-.01-.04-.03-.08-.05-.12-.05-.11-.12-.23-.18-.33-.33-.54-.34-1.29,.3-1.58,.7-.32,1.43,.08,1.95,.54,.97,.86,1.66,1.95,2.01,3.19,.2,.7,.25,1.34,.09,2.05-.13,.54-.38,1.08-.65,1.56-.52,.93-1.4,1.66-2.28,2.24-.54,.35-1.1,.69-1.73,.83-.66,.14-1.34,.28-2.02,.25-.94-.03-1.96-.54-2.44-1.39-.17-.3-.3-.62-.33-.97-.05-.51,.2-.87,.55-1.19Z"/>
              <path class="cls-3" d="M882.94,1378.73c.1-.12,.2-.23,.31-.34,.18-.18,.27-.25,.55-.34,.05-.02,.1-.03,.15-.04,.21-.06,.42-.13,.63-.21,.37-.13,.74-.29,1.1-.45,.24-.12,.48-.23,.71-.36,.51-.28,1.09-.11,1.51,.26,.36,.31,.71,.91,.38,1.37-.34,.46-.7,.9-1.09,1.31-.26,.27-.53,.54-.81,.79-.1,.09-.2,.2-.31,.28-.1,.07-.28,.15-.41,.18-.15,.04-.31,.05-.46,.07-.08,.01-.17,.02-.25,.03-.14-.01-.28-.03-.42-.04-.14-.05-.29-.09-.43-.14-.37-.16-.69-.42-.93-.73-.18-.23-.3-.47-.36-.75-.06-.28-.06-.65,.14-.88Z"/>
              <path class="cls-3" d="M836.62,1532.85c6.46-5,13.97-8.79,20.76-13.33,6.89-4.59,13.7-9.38,20.33-14.34,6.54-4.9,12.82-10.23,18.65-15.96,2.95-2.9,5.79-5.9,8.7-8.84,3.2-3.23,6.71-6.35,9.33-10.09,.74-1.06,2.9,.45,2.18,1.53-2.47,3.7-4.35,7.76-6.83,11.47-2.39,3.58-5.21,6.86-8.16,9.98-5.75,6.06-11.99,11.55-18.63,16.6-6.84,5.2-14.12,9.65-21.71,13.69-7.46,3.97-15.24,8.37-23.31,10.96-.81,.26-2.19-.99-1.3-1.67Z"/>
              <path class="cls-5" d="M738.82,1345.53c3.35-15.35,7.22-30.46,11.63-45.54,.33-1.13,2.09-.09,1.96,.86-4.01,27.44-9.5,54.6-14,81.96-4.51,27.44-8.28,54.96-10.74,82.66-1.4,15.75-1.95,31.54-2.21,47.35-.03,2.06-3.14,.89-3.25-.69-4.08-55.76,4.76-112.25,16.63-166.59Z"/>
              <path class="cls-5" d="M649.65,1397.05c.59-5.1,1.23-10.19,1.74-15.3,.51-5.1,.61-10.55,1.87-15.52,.47-1.86,2.92-.08,3.14,1.02,1.03,5.04,.66,10.51,.32,15.62-.35,5.36-.84,10.7-1.29,16.05-.85,10.1-.96,20.35-2.31,30.39-.34,2.5-3.91,.06-4.19-1.36-1.97-10.1-.47-20.77,.71-30.9Z"/>
            </g>
            <g class="cls-14">
              <path class="cls-12" d="M588.71,554.16c12.71-24.02,27.96-47.9,35.76-74.04,.18-3.18,.35-6.35,.54-9.53,2.38-40.94,3.75-82.08,7.1-122.95,1.68-20.49,4.71-40.92,5.22-61.49,.34-13.77-3.73-27.15-4.76-40.69-.28-.4-.59-.77-.87-1.17-35.83-51.19-38.65-115.26-46.31-175.18-8.65-67.69-19.44-135.13-26.69-203-12.76-119.43-5.8-240.65-22.88-359.61h7.69c19.5,100.67,17.01,204.31,24.13,306.69,4.77,68.55,15.25,136.43,25.45,204.33,4.99,33.23,9.68,66.49,13.82,99.83,3.76,30.31,8.39,60.68,19.84,89.18,11.45,28.49,27.68,54.09,48.19,76.85,19.83,22.01,42.61,40.93,62.8,62.53,39.57,42.33,71.54,93.21,90.09,148.23,2.31,6.84,4.33,13.71,6.11,20.61-3.03-43.13-7.78-86-13.63-128.89-6.78-49.67-14.23-99.09-15.83-149.26-.81-25.46-1.1-51.01-1.04-76.55-.6,1.32-1.19,2.59-1.73,3.79-5.95,13.05-13.33,25.52-18.19,39.05-5.47,15.22-7.64,31.67-8.97,47.7-.71,8.54-1.08,17.11-1.34,25.67-.17,5.64,0,11.58-.52,17.32-3.38-2.22-5.55-5.98-6.95-10.26-.61-11.52,.03-23.44,.41-34.52,.54-15.93,2.14-32.13,6.46-47.52,3.6-12.81,10.17-24.63,15.83-36.6,3.12-6.6,6.06-13.31,8.33-20.26,2-6.13,1.92-13.23,4.31-19.07,.56-1.37,1.57-1.93,2.7-2.01,.18-11.89,.41-23.76,.7-35.63,.65-26.54,1.93-53.09,4.99-79.47,3.2-27.54,8.84-54.18,15.14-81.15,.4-1.7,3.18-.16,2.95,1.3-3.85,25.27-5.36,51.1-6.78,76.61-1.33,23.97-2.03,47.97-2.42,71.97-.81,49.51-1.02,99.2,.05,148.71,.01,.61,.05,1.22,.06,1.83,1.29,4.66,2.59,9.31,4.61,13.83,3.94,8.83,9.14,17.11,14.47,25.15,10.17,15.36,21.98,29.81,30.91,45.96,11.37,20.58,18.82,43.34,22.87,66.71,.24,5.39,.26,10.79,.03,16.16-.38,9.11-1.4,18.23-3.12,27.21-3.93-39.64-11.43-78.71-33.01-113.2-10.08-16.11-22.12-30.91-32.25-46.99-1.09-1.72-2.15-3.47-3.2-5.23,5.42,88.9,24.04,176.57,28.92,265.63,1.5,27.35,.83,54.8-1.47,82.09-1.24,14.74-2.83,29.65-5.32,44.37-.56,5.74-1.18,11.47-1.91,17.21-2.55,20.17-6.08,40.21-9.44,60.28,1.58,7.83,1.56,15.95,3.11,23.85,1.61,8.19,3.73,16.28,5.78,24.37,3.74,14.76,6.82,29.4,7.83,44.63,.88,13.3,.66,26.86-.78,40.27-3.93,16.72-9.67,33.01-17.19,48.45-.09-.33-.12-.67-.03-1.02,8.24-30.21,10.65-62.12,7.81-93.28-1.44-15.8-5.46-30.88-9.45-46.18-.68-2.6-1.46-5.4-2.26-8.28-4.75,33.52-8.44,67.14-12.17,100.78-7.55,68.09-17.71,135.82-25.92,203.82-3.92,32.5-5.78,65.3-10.11,97.73-4.29,32.11-10.5,63.96-13.6,96.23-.23,2.35-.4,4.71-.59,7.07-1.35,7.17-2.56,14.36-3.63,21.57-.9-5.83-1.97-11.63-3.12-17.43,1.06-18.63,3.45-37.21,5.93-55.68,4.41-32.84,7.16-65.66,9.98-98.67,5.57-65.2,14.21-130.13,22.34-195.05-1.73,3.84-3.6,7.5-5.02,10.63-5.2,11.47-9.86,22.81-13.85,34.75-6.24,18.68-12.3,37.47-17.35,56.52,.29-1.68,.52-3.37,.82-5.05,4.94-28.02,11.75-55.49,22.4-81.91,10.04-24.91,17.43-50.85,21.01-77.5,1.95-14.52,3.8-29.04,5.71-43.56,4.34-33.01,7.22-66.19,11.5-99.21,7.55-58.36,19.24-119.65,8.88-178.36-10.48-59.41-45.68-115.37-82.77-161.97-30.79-38.7-68.29-71.78-99.26-110.25,1.72,6.81,3.1,13.68,3.25,20.73,.39,17.82-1.81,35.72-3.55,53.42-3.64,36.99-4.55,74.33-6.72,111.44-2.16,36.83-3.7,73.71-6.22,110.52-.72,10.51-1.48,21.03-2.23,31.54,.21,.39,.38,.81,.58,1.2-.7,6.23-1.32,12.46-1.94,18.56-.06,.94-.1,1.89-.16,2.83-.96,11.44-1.59,22.9-1.78,34.37-.28,7.11-.58,14.21-.7,21.33-.42,26.94-1.42,54.34,4.31,80.85,6.83,31.63,25.33,59.27,35.89,89.63,28.92,83.09,37.69,174.25,35.63,261.83,0,.05,0,.11,0,.16-.17-42.2-4.35-84.37-11.85-125.88-5.99-33.13-14.15-65.86-24.21-97.99-1.53-6.52-3.19-13.02-4.98-19.46-.59-1.42-1.12-2.85-1.82-4.24-4.65-9.27-10.47-17.87-14.96-27.23-3.86-8.05-7.74-16.09-11.63-24.13,2.07,29.44,4.22,58.88,6.03,88.33,4.38,70.99,15.67,141.18,23.08,211.85,5.66,53.95,8.07,108.7,2.89,162.7-3.14,19.24-7.21,38.31-11.16,57.4-.93,2.4-1.86,4.81-2.83,7.2,2.84-22.77,5.76-45.59,5.78-68.49,9.7-117.04-17.97-235.11-28.15-351.73-3.23-36.97-5.71-74.02-8.65-111.01-2.88-36.25-6.03-72.62-6.72-109-.15-8.09-.08-16.17,.05-24.26-.56,1.26-1.11,2.5-1.61,3.69-5.59,13.18-10.76,26.15-13.28,40.31-4.72,26.51-4.69,53.92-5.46,80.88-3.72-11.97-5.99-24.31-7.36-36.79-.48-15.32-.17-30.64,2.31-45.97,2.31-14.27,7.07-27.4,12.7-40.65,2.68-6.3,5.46-12.56,7.81-18.99,2.17-5.92,3.31-12.71,6.17-18.35,.91-17.03,2.11-34.06,3.35-51.06,1.75-24.03,3.11-48.07,4.45-72.11-7.47,15.59-16.09,30.73-24.53,45.8-10.31,18.41-20.79,36.94-27.07,57.2-5.77,18.64-7.73,38.13-11.26,57.26-.81-4.64-1.39-9.31-1.81-14.01,1.74-14.45,3.24-28.93,6.73-43.07,4.93-19.98,14.14-38.34,23.71-56.43Z"/>
            </g>
            <g>
              <polygon class="cls-13" points="1185.33 44.28 601.05 555.48 1272.84 839.86 1185.33 44.28"/>
              <g>
                <g>
                  <rect class="cls-7" x="1159.91" width="159.95" height="895.51" transform="translate(2479.78 895.51) rotate(180)"/>
                  <rect class="cls-10" x="1177.59" width="126.29" height="895.51" transform="translate(2481.47 895.51) rotate(180)"/>
                  <rect class="cls-11" x="1177.59" width="31.04" height="895.51" transform="translate(2386.22 895.51) rotate(180)"/>
                  <rect class="cls-11" x="1272.84" width="31.04" height="895.51" transform="translate(2576.72 895.51) rotate(180)"/>
                </g>
                <g>
                  <g>
                    <path class="cls-7" d="M1319.86,629.82s-37.91,9.04-56.46-41.16c0,0-8.67-25.6-17.45-5.52-8.78,20.08,13.06,71.74,57.93,78.48h15.99v-31.8Z"/>
                    <path class="cls-7" d="M1159.91,629.82s37.91,9.04,56.46-41.16c0,0,8.67-25.6,17.45-5.52,8.78,20.08-13.06,71.74-57.93,78.48h-15.99v-31.8Z"/>
                  </g>
                  <g>
                    <path class="cls-7" d="M1319.86,213.88s-37.91,9.04-56.46-41.16c0,0-8.67-25.6-17.45-5.52-8.78,20.08,13.06,71.74,57.93,78.48h15.99v-31.8Z"/>
                    <path class="cls-7" d="M1159.91,213.88s37.91,9.04,56.46-41.16c0,0,8.67-25.6,17.45-5.52,8.78,20.08-13.06,71.74-57.93,78.48h-15.99v-31.8Z"/>
                  </g>
                </g>
                <g>
                  <polygon class="cls-9" points="1233.2 780.52 1233.2 679.49 1222.69 679.49 1240.09 665.56 1257.5 679.49 1246.98 679.49 1246.98 780.52 1233.2 780.52"/>
                  <path class="cls-9" d="M1233.3,760.28c-.54-3.19-.58-5.68-.43-8.47,.2-2.72,.53-5.43,1.25-8.1,1.33-5.35,3.71-10.6,7.22-15.37,3.57-4.82,7.96-8.93,13.57-12.6,2.65-1.65,5.39-3.16,8.21-4.53,1.25-.6,2.51-1.2,3.8-1.74l-5-7.4c8.97,1.37,17.39,3.79,24.42,7.14-4.2,5.67-6.64,11.55-7.86,17.36l-5-7.4c-1.09,.46-2.14,.96-3.2,1.47-2.37,1.15-4.7,2.43-6.86,3.78-3.84,2.5-7.58,5.9-10.19,9.51-2.69,3.65-4.54,7.72-5.59,11.95-.58,2.11-.83,4.28-.99,6.44-.15,2.09-.03,4.51,.25,6.16l-13.59,1.81Z"/>
                  <path class="cls-9" d="M1232.89,758.46c.28-1.65,.4-4.07,.25-6.16-.16-2.16-.42-4.33-.99-6.44-1.05-4.23-2.9-8.3-5.59-11.95-2.61-3.61-6.36-7.01-10.19-9.51-2.16-1.35-4.49-2.63-6.86-3.78-1.06-.5-2.11-1.01-3.2-1.47l-5,7.4c-1.22-5.81-3.66-11.69-7.86-17.36,7.03-3.35,15.45-5.77,24.42-7.14l-5,7.4c1.3,.55,2.55,1.14,3.8,1.74,2.82,1.37,5.55,2.87,8.21,4.53,5.61,3.67,10,7.78,13.57,12.6,3.51,4.78,5.89,10.03,7.22,15.37,.72,2.67,1.05,5.38,1.25,8.1,.15,2.79,.12,5.28-.43,8.47l-13.59-1.81Z"/>
                </g>
                <g>
                  <path class="cls-9" d="M1233.2,355.44v-90.17c0-3-3.04-5.43-6.78-5.43h-3.73l12.6-10.09c2.65-2.12,6.95-2.12,9.6,0l12.61,10.09h-3.73c-3.75,0-6.79,2.43-6.79,5.43v90.17c0,3-3.04,5.43-6.78,5.43h-.21c-3.75,0-6.78-2.43-6.78-5.43Z"/>
                  <path class="cls-9" d="M1240.7,339.64c-4.11,.55-7.94-1.97-7.9-5.3,0-.72,.03-1.44,.07-2.19,.2-2.72,.53-5.43,1.25-8.1,1.33-5.35,3.71-10.6,7.22-15.37,3.57-4.82,7.96-8.93,13.57-12.6,2.65-1.65,5.39-3.16,8.21-4.53,1.25-.6,2.51-1.2,3.8-1.74l-5-7.4c6.45,.99,12.62,2.51,18.19,4.54,3.36,1.22,4.8,4.45,3.26,7.13-2.44,4.24-3.99,8.55-4.89,12.83l-5-7.4c-1.09,.46-2.14,.96-3.2,1.47-2.37,1.15-4.7,2.43-6.86,3.78-3.84,2.51-7.58,5.9-10.19,9.51-2.69,3.65-4.54,7.72-5.59,11.95-.58,2.11-.83,4.28-.99,6.44-.04,.52-.06,1.06-.06,1.61-.03,2.63-2.32,4.9-5.57,5.33l-.31,.04Z"/>
                  <path class="cls-9" d="M1238.77,339.6c-3.25-.43-5.54-2.7-5.57-5.33,0-.55-.03-1.09-.06-1.61-.16-2.16-.42-4.33-.99-6.44-1.05-4.23-2.9-8.3-5.59-11.95-2.61-3.61-6.36-7-10.19-9.51-2.16-1.35-4.49-2.63-6.86-3.78-1.06-.5-2.11-1.01-3.2-1.47l-5,7.4c-.9-4.28-2.46-8.59-4.89-12.83-1.54-2.68-.1-5.91,3.26-7.13,5.57-2.03,11.74-3.56,18.19-4.54l-5,7.4c1.3,.55,2.55,1.14,3.8,1.74,2.82,1.37,5.55,2.87,8.21,4.53,5.61,3.67,10,7.78,13.57,12.6,3.51,4.78,5.89,10.03,7.22,15.37,.72,2.67,1.05,5.38,1.25,8.1,.04,.74,.07,1.47,.07,2.19,.04,3.33-3.8,5.85-7.9,5.3l-.31-.04Z"/>
                </g>
              </g>
            </g>
          </g>
        </g>
      </g>
    </g>
  </g>
</svg>