<?xml version="1.0" encoding="UTF-8"?>
<svg xmlns="http://www.w3.org/2000/svg" xmlns:xlink="http://www.w3.org/1999/xlink" viewBox="0 0 1459.6 1652.05">
  <defs>
    <style>
      .cls-1 {
        fill: none;
      }

      .cls-2 {
        mix-blend-mode: screen;
        opacity: .54;
      }

      .cls-2, .cls-3, .cls-4, .cls-5 {
        fill: #fdcdad;
      }

      .cls-6 {
        clip-path: url(#clippath);
      }

      .cls-7 {
        fill: #f7a397;
      }

      .cls-8 {
        fill: #da9a83;
      }

      .cls-9, .cls-10 {
        fill: #6f8fc6;
      }

      .cls-11 {
        clip-path: url(#clippath-1);
      }

      .cls-12 {
        fill: #addee2;
        opacity: .32;
      }

      .cls-12, .cls-10, .cls-4, .cls-13, .cls-5 {
        mix-blend-mode: multiply;
      }

      .cls-10 {
        opacity: .45;
      }

      .cls-4 {
        opacity: .46;
      }

      .cls-13 {
        fill: #643d98;
        opacity: .68;
      }

      .cls-5 {
        opacity: .84;
      }

      .cls-14 {
        isolation: isolate;
      }
    </style>
    <clipPath id="clippath">
      <rect class="cls-1" width="1459.6" height="1652.05"/>
    </clipPath>
    <clipPath id="clippath-1">
      <rect class="cls-1" y="-13.38" width="1459.6" height="1664.56"/>
    </clipPath>
  </defs>
  <g class="cls-14">
    <g id="Warstwa_2" data-name="Warstwa 2">
      <g id="Layer_1" data-name="Layer 1">
        <g class="cls-6">
          <g class="cls-11">
            <g>
              <g>
                <g>
                  <path class="cls-3" d="M510.05,1408.05c1.74-2.17,3.7-4.1,5.85-5.72,5.93-1.61,11.03-1.98,12.24-1.68,0,0,3.06-22.16,28.65-17.74,0,0,6.59-14.74,36.41-8.89,0,0,5.83-10.62,42.01-.03,0,0,27.29-67.93,14.65-173.2-12.51-104.21-27.42-211.36-52.77-313.1-37.54-150.68-79.52-292.9-73.77-449.97,5.95-162.57,36.84-323.39,36.84-486.29,0-51.72-36.74-249.5-77.22-468.76H997.25c-9.02,67.61-19.28,145.32-31.22,226.44-14.74,100.11-38.5,198.81-49.54,299.48-11.66,106.38,7.77,203.53,14.99,308.77,10.3,150.21,5.79,308.52-41.51,452.65-39.99,121.86-50.46,266.02-52.12,394.9-.95,73.67-21.61,147.46,16.72,213.86,8.85,15.32,20.51,32.83,13.66,49.15-3.3,7.85-20.09,48.7-16.31,62.3,8.83,31.76,32.17,114.42-3.12,140.87-35.29,26.48-79.54,24.16-132.48,8.28-52.95-15.89-72.62-90.92-109.67-105.05-37.06-14.11-68.83-44.11-75.88-65.29,0,0-1.77-9.7-12.36-11.47-7.81-1.3-15.27-7.15-20.17-16.3-1.12-5.97-1.01-12.01,1.47-17.66,2.39-5.43,6.65-10.93,10.35-15.55Z"/>
                  <path class="cls-4" d="M966.02-290.9c11.94-81.12,22.2-158.82,31.22-226.44h-47.74c-1.23,45.82-8.16,91.56-15.78,136.62-4.97,29.4-10.42,58.73-15.1,88.18-5.15,32.34-8.22,65.05-13,97.46-9.76,66.32-21.05,132.37-31.14,198.63-9.9,65-16.25,130.92-10.69,196.64,2.9,34.31,10.75,67.52,16.37,101.4,5.17,31.17,8.7,62.6,10.69,94.13,4.02,63.53,1.76,127.31-4.4,190.63-12.34,126.85-39.78,251.51-61.39,376.95-20.68,120.06-40.34,248.04-10.75,368.31,8.97,26.36,19.05,52.4,23.71,79.95,3.04,17.96,3.55,36.11,1.31,54.2-1.92,15.46-.59,30.27,1.93,45.61,4.14,25.13,12.46,53.92,3.45,78.91-9.31,25.82-37.85,36.69-63.39,37.57-29.23,1-61.65-8.61-83.23-28.92-26.02-24.49-24.7-66.55-27.22-99.52-.99-12.93-2.01-25.89-4.03-38.71-1.52-9.61-4.02-19-5.04-28.69-2.21-21.01,.45-42.11,4.8-62.68,4.55-21.52,10.9-42.63,15.05-64.23,4.7-24.43,4.55-49.27,4.42-74.07-.51-101-13.74-201.6-32.79-300.65-18.38-95.52-39.55-190.25-50.85-287-11.64-99.67-12.1-199.41-4.44-299.4,7.72-100.69,24.52-201.15,26.93-302.17,2.43-102.29-20.73-203.55-41.59-303.13-17.79-84.91-36.32-169.88-47.09-256h-53.31c40.48,219.26,77.22,417.04,77.22,468.76,0,162.9-30.89,323.73-36.84,486.29-5.75,157.08,36.23,299.3,73.77,449.97,25.35,101.74,40.26,208.89,52.77,313.1,12.64,105.27-14.65,173.2-14.65,173.2-36.18-10.59-42.01,.03-42.01,.03-29.82-5.85-36.41,8.89-36.41,8.89-25.59-4.42-28.65,17.74-28.65,17.74-1.2-.3-6.31,.07-12.23,1.68-2.15,1.62-4.11,3.55-5.85,5.72-3.7,4.62-7.96,10.12-10.35,15.55-2.49,5.65-2.6,11.69-1.47,17.66,4.9,9.15,12.37,15,20.17,16.3,10.58,1.76,12.36,11.47,12.36,11.47,7.05,21.18,38.82,51.18,75.88,65.29,37.06,14.13,56.73,89.16,109.67,105.05,52.94,15.88,97.19,18.2,132.48-8.28,35.29-26.46,11.95-109.11,3.12-140.87-3.78-13.59,13.02-54.44,16.31-62.3,6.85-16.31-4.82-33.83-13.66-49.15-38.33-66.39-17.67-140.18-16.72-213.86,1.66-128.88,12.13-273.04,52.12-394.9,47.3-144.13,51.81-302.45,41.51-452.65-7.22-105.24-26.65-202.39-14.99-308.77,11.04-100.68,34.8-199.37,49.54-299.48Z"/>
                  <path class="cls-4" d="M523.32,437.71c-1.83,50.03,1.21,98.55,7.38,146.32-.93-35.66-.47-71.36,1.21-106.99,2.26-47.98,9-95.53,17.27-142.8,16.8-96.05,39.79-191.76,41.6-289.7,.9-48.78-5.27-97.21-10.63-145.61-5.5-49.66-11.61-99.26-18.79-148.71-13.07-90-29.71-179.6-53.01-267.55h-25.41c40.48,219.26,77.22,417.04,77.22,468.76,0,162.9-30.89,323.73-36.84,486.29Z"/>
                  <path class="cls-4" d="M913.91,657.08c3.65,0,3.66-5.67,0-5.67s-3.66,5.67,0,5.67Z"/>
                  <path class="cls-4" d="M980.14-517.34c-.04,.39-.06,.79-.1,1.18-7.4,78.95-20.04,157.29-32.89,235.5-13.05,79.46-26.37,158.95-34.67,239.07-8.29,80.01-11.05,160.33-3.51,240.52,3.82,40.6,10.92,80.47,18.06,120.58,2.55,14.34,4.85,28.73,7,43.14-.71-15.16-1.54-30.28-2.57-45.3-7.22-105.24-26.65-202.39-14.99-308.77,11.04-100.68,34.8-199.37,49.54-299.48,11.94-81.12,22.2-158.82,31.22-226.44h-17.1Z"/>
                  <path class="cls-8" d="M632.42,1382.08c2.47-13.84,6.4-27.47,9.64-41.15,3.4-14.36,7.21-28.62,10.06-43.1,.04-.2,.39-.02,.36,.16-2.28,14.77-4.53,29.57-7.52,44.22-2.75,13.47-6.13,26.92-7.95,40.56-.92,6.88-1.27,13.82-.52,20.73,.71,6.56,3.41,12.29,5.12,18.59,1.44,5.28,2.29,10.69,2.81,16.13-.99,5.12-2.3,10.18-3.91,15.14-.41-4.66-.21-9.47-.69-14.07-.7-6.65-2.06-13.13-4.13-19.49-2.02-6.21-4.18-12.07-4.66-18.65-.46-6.35,.26-12.82,1.38-19.06Z"/>
                  <g>
                    <path class="cls-8" d="M506.68,1416.5c1.91-.9,4.37-1.04,6.85-.84,1.6,.13,3.25,.48,4.91,.91,1.74,.69,3.41,1.46,4.87,2.18,4.68,2.32,8.82,5.48,13.36,8.02,1.69,.95,3.44,1.77,5.18,2.61,.86,.95,1.81,1.81,2.62,2.8,.19,.23,.37,.46,.55,.7-2.29-.76-4.55-1.58-6.76-2.6-4.18-1.93-7.88-4.68-11.89-6.92-6.78-3.8-15.17-7.99-22.66-4.55,.8-.96,1.76-1.74,2.97-2.31Z"/>
                    <path class="cls-8" d="M537.16,1397.07c2.6,.38,5.18,.93,7.69,1.67,8.65,2.55,17.25,7.73,26.37,8.65-.64,.37-1.32,.67-1.98,1.01-2.62-.15-5.2-.54-7.84-1.33-4.39-1.33-8.62-3.09-12.94-4.62-3.66-1.29-7.48-2.37-11.34-2.89-1.99-.27-4.09-.39-6.07,0-1.67,.32-3,1.4-4.65,1.63-.3,.04-.63-.11-.91-.33,3.59-2.15,7.56-3.54,11.68-3.8Z"/>
                    <path class="cls-8" d="M558.38,1381.82c.63-.37,1.28-.68,1.92-1.02,2.3-.28,4.61-.42,6.95-.21,4.01,.36,7.65,1.71,11.38,3.13,4.23,1.6,8.44,3.29,12.72,4.75,3.29,1.12,6.66,2.35,10.08,3.17-1.56,.2-3.13,.27-4.71,.26-.99-.17-1.97-.27-2.96-.52-4.05-1-8.06-2.36-11.97-3.8-3.92-1.44-7.85-3.22-12-3.89-4.14-.68-8.38-.15-12.47,.58-.59,.1-1.27-.25-1.77-.73,.94-.58,1.88-1.16,2.83-1.72Z"/>
                    <path class="cls-8" d="M619.91,1376.69c-2.71-.79-5.41-1.69-8.14-2.4-1.55-.4-3.1-.74-4.66-.94-3.03-.89-6.11-1.65-9.29-1.74-1.47-.04-2.91,.13-4.32,.38,.1-.08,.21-.17,.31-.25,.45-.37,.9-.74,1.35-1.11,.37-.06,.74-.11,1.08-.17,1.58-.31,3.18-.6,4.78-.75,3.27-.31,6.42,.22,9.58,1.06,5.24,1.4,10.3,3.4,15.38,5.28-1.88,.76-3.95,.86-6.07,.65Z"/>
                  </g>
                  <path class="cls-8" d="M839.03,105.26c.84-10.12,3.23-20.25,7.38-29.54,2.24-5.02,4.78-9.89,7.63-14.59,3.11-5.13,6.41-10.72,10.95-14.72,1.42-1.25,4.64,1.05,3.99,2.8-2.01,5.37-5.45,10.26-8.12,15.33-2.58,4.9-4.89,9.91-6.85,15.09-3.41,8.99-6.01,18.22-6.74,27.84-.73,9.7,0,19.44,1.94,28.96,2.38,11.73,6.74,22.81,10.66,34.07,1.12,3.22-3.74,2.8-4.86,.71-10.54-19.67-17.84-43.43-15.97-65.95Z"/>
                  <path class="cls-8" d="M622.15,20.01c-.84-2.23,2.52-1.82,3.32-.49,8.77,14.64,13.08,31.72,14.39,48.65,1.29,16.68,.92,34.72-3.83,50.86-.84,2.84-5.56,.58-5.48-1.78,.54-16.53,3.03-32.81,2.07-49.4-.96-16.56-4.61-32.35-10.47-47.85Z"/>
                </g>
                <path class="cls-2" d="M655.18,778.41c-4.58-42.39-8.34-84.91-12.3-127.37-7.99-85.65-8.07-172.12-7.95-258.09,.03-23.49,1.41-46.96,1.62-70.46,.1-10.89,.06-21.77,.12-32.66,.07-11.14-1.61-21.5-2.58-32.48-.35-3.92-7.7-.83-7.58,2.46,.4,10.91-4.01,22.4-6.59,32.98-2.58,10.54-3.87,20.8-4.99,31.58-2.18,21.11-5.19,42.1-6.37,63.3-1.17,21.04-1.18,42.05-1.01,63.11,.16,21.14-.21,42.33,1,63.44,4.89,85.31,19.74,169.13,31.27,253.64,3.07,22.48,6.36,44.93,9.46,67.4,3.15,22.83,5.8,45.49,13.56,67.31,1.05,2.96,5.75,.29,5.27-2.31-7.39-40.26-8.55-81.24-12.93-121.86Z"/>
                <path class="cls-3" d="M522.57,1453.02c-2.55-1.62-5.55-2.93-7.6-5.21-.97-1.08-1.71-2.32-2.28-3.64-.66-1.52-1.47-2.93-2.21-4.41-2.59-5.2-2.49-11.45-1.74-17.08,.1-.76-.6-1.23-1.27-1.26-.88-.04-1.61,.55-2.11,1.2-4.83,6.25-4.75,14.31-1.4,21.24,.8,1.66,1.74,3.01,3.2,4.18,1.32,1.05,2.8,1.96,4.24,2.82,3.21,1.91,6.46,3.6,10.3,3.53,.52,0,1.59-.89,.85-1.36Z"/>
                <path class="cls-3" d="M530.73,1415.15c-.52-.64-1.06-1.21-1.63-1.8-.4-.41-.82-.8-1.24-1.19-.16-.14-.31-.29-.46-.43-.02-.02,0,0-.02-.02-.03-.03-.03-.04-.1-.11-1.05-1.07-1.92-2.28-2.7-3.55-.03-.06-.09-.16-.14-.25-.02-.06-.04-.13-.06-.19-.08-.27-.09-.55-.17-.82,0-.02,0,0,0-.01,0-.02,0-.02,.01-.06,.01-.13,.04-.28,.04-.41,0-.15-.02-.3-.03-.44,.01,.19,.02,.21,.01,.07,0-.17,.01-.33-.03-.5-.09-.3-.38-.51-.7-.49-1.65,.1-3.1,1.77-3.54,3.28-.19,.67-.28,1.36-.23,2.05,.06,.97,.33,1.66,.75,2.53,.58,1.2,1.58,2.21,2.51,3.14,1.15,1.14,2.32,2.07,3.74,2.86,.75,.41,1.48,.82,2.26,1.18-.05-.02-.12-.05-.12-.05,.08,.04,.15,.07,.23,.11,.14,.07,.29,.14,.43,.21,.36,.17,.7,.24,1.08,.33,1.08,.28,2.42-.75,2.23-1.9-.23-1.39-1.22-2.46-2.08-3.52Z"/>
                <path class="cls-3" d="M547.53,1393.66c-.3-.28-.63-.5-.96-.75-.38-.29-.77-.48-1.19-.72-.68-.39-1.28-.9-1.86-1.43-.27-.3-.53-.61-.71-.99,.07,.15,.13,.29,.2,.44-.09-.21-.19-.42-.29-.62-.04-.09-.06-.18-.1-.27-.01-.02,0,.01-.01,0,.02-.14,.04-.31,.03-.43v-.02c.03-.1,.07-.19,.1-.29,.01-.04,.03-.08,.05-.12,.05-.11,.12-.23,.18-.33,.32-.54,.34-1.29-.3-1.58-.7-.32-1.43,.08-1.95,.54-.97,.86-1.66,1.95-2.01,3.19-.2,.7-.25,1.34-.09,2.05,.13,.54,.38,1.08,.65,1.56,.52,.93,1.4,1.66,2.28,2.24,.54,.35,1.1,.69,1.73,.83,.66,.14,1.34,.28,2.02,.25,.94-.03,1.96-.54,2.44-1.39,.17-.3,.3-.62,.33-.97,.05-.51-.2-.87-.55-1.19Z"/>
                <path class="cls-3" d="M576.62,1378.73c-.1-.12-.2-.23-.31-.34-.18-.18-.27-.25-.55-.34-.05-.02-.1-.03-.15-.04-.21-.06-.42-.13-.63-.21-.37-.13-.74-.29-1.1-.45-.24-.12-.48-.23-.71-.36-.51-.28-1.09-.11-1.51,.26-.36,.31-.71,.91-.38,1.37,.33,.46,.7,.9,1.09,1.31,.26,.27,.53,.54,.81,.79,.1,.09,.2,.2,.31,.28,.1,.07,.28,.15,.41,.18,.15,.04,.31,.05,.46,.07,.08,.01,.17,.02,.25,.03,.14-.01,.28-.03,.42-.04,.14-.05,.29-.09,.43-.14,.37-.16,.69-.42,.93-.73,.18-.23,.3-.47,.36-.75,.06-.28,.06-.65-.14-.88Z"/>
                <path class="cls-3" d="M622.94,1532.85c-6.46-5-13.97-8.79-20.76-13.33-6.89-4.59-13.7-9.38-20.33-14.34-6.54-4.9-12.82-10.23-18.65-15.96-2.95-2.9-5.79-5.9-8.7-8.84-3.2-3.23-6.71-6.35-9.32-10.09-.74-1.06-2.9,.45-2.18,1.53,2.47,3.7,4.35,7.76,6.83,11.47,2.39,3.58,5.21,6.86,8.16,9.98,5.75,6.06,11.99,11.55,18.63,16.6,6.84,5.2,14.12,9.65,21.71,13.69,7.46,3.97,15.24,8.37,23.31,10.96,.81,.26,2.19-.99,1.3-1.67Z"/>
                <path class="cls-5" d="M720.74,1345.53c-3.35-15.35-7.22-30.46-11.63-45.54-.33-1.13-2.09-.09-1.96,.86,4.01,27.44,9.5,54.6,14,81.96,4.51,27.44,8.27,54.96,10.75,82.66,1.4,15.75,1.95,31.54,2.21,47.35,.03,2.06,3.14,.89,3.25-.69,4.08-55.76-4.76-112.25-16.63-166.59Z"/>
                <path class="cls-5" d="M809.92,1397.05c-.6-5.1-1.23-10.19-1.74-15.3-.51-5.1-.61-10.55-1.87-15.52-.47-1.86-2.92-.08-3.14,1.02-1.03,5.04-.66,10.51-.32,15.62,.35,5.36,.84,10.7,1.29,16.05,.85,10.1,.96,20.35,2.31,30.39,.34,2.5,3.91,.06,4.19-1.36,1.97-10.1,.47-20.77-.71-30.9Z"/>
              </g>
              <path class="cls-13" d="M568.67,333.09c2.82-2.19,6.51-3.13,9.79-4.43,.1-.04,.09-.04,.14-.06,.14-.07,.29-.14,.43-.22,.38-.2,.76-.42,1.11-.66,.26-.18,.51-.37,.77-.56,.09-.08,.18-.16,.27-.24,.03-.04,.03-.04,.12-.14,.91-1.52,1.85-3.62,3.46-4.43,.49-.24,.99-.34,1.5-.38,1.53-3.48,4.28-6.37,7.95-8.51,3.82-2.22,8.01-3.47,10.73-7.17,3.26-4.44,3.19-10.09,3.29-15.32,.15-8.17,.22-16.84,3.69-24.4,3.4-7.41,10.22-12.22,18.19-13.8,3.2-.64,4.34-.11,6.44-2.74,1.03-1.29,2.07-2.8,3.03-4.39,.58-5.95,1.08-11.89,1.43-17.85,.03-.09,.05-.17,.08-.26,.01-.61,.05-1.22,.06-1.83,0-.25,0-.5,.01-.74,.5-9.28,.67-18.56,.43-27.85,.49-40.03,.26-80.13-.39-120.12-.39-24-1.09-48-2.42-71.97-1.42-25.51-2.93-51.34-6.78-76.61-.22-1.46,2.56-2.99,2.95-1.3,6.3,26.97,11.94,53.61,15.14,81.15,3.07,26.38,4.34,52.93,4.99,79.47,.29,11.86,.53,23.74,.7,35.63,.02,0,.04,.02,.07,.02-.81,25.26-.82,50.55-1.42,75.82,1.4-1.5,3.09-2.7,5.25-3.44,9.62-3.29,20.53,6.66,28.83-1.22-.57-.74-1.01-1.6-1.18-2.61-.13-.78,.39-2.11,1.15-2.48,1.02-.49,2.05-.82,3.08-1.07,.34-2.01,.38-4.12,.53-6.03,.38-4.86,1.39-9.62,4.62-13.46,7.13-8.48,18.93-9.77,29.15-7.49,1.52,.34,3.05,3.05,.67,3.26-9.03,.8-20.77,5.32-22.74,15.27-.67,3.4-.68,6.9-.92,10.27,.64,.38,1.27,.81,1.88,1.28,1.22,.94,2.34,2.03,3.46,3.08,.5,.47,1.01,.92,1.51,1.4,.14,.13,.13,.13,.18,.19,.05,.04,.05,.02,.18,.12,.54,.4,1.06,.83,1.61,1.22,.15,.11,.43,.28,.6,.38,.75,.4,.88,.36,1.98,.37,.17,0,.19,.01,.25,.02,.04-.02,.05-.03,.21-.06,.49-.1,.97-.22,1.45-.35,1.14-.31,2.26-.69,3.37-1.09,2.64-.96,5.25-2.07,7.82-3.21,4.53-2.01,8.95-4.23,13.52-6.13,.46-.19,1.1,0,1.58,.25,.72-.08,1.86,.7,1.26,1.33,.11-.12,.02,1.19-.04,1.33-.15,.33-.63,.68-.88,.94-.82,.87-1.67,1.66-2.6,2.42-2.37,1.92-4.81,3.72-7.33,5.44-4.33,2.96-9.4,6.66-14.67,7.65-7.06,1.32-12.64-2.97-17.56-7.38-.87,1.66-2.03,3.22-3.78,4.62-4.38,3.53-10.28,4.14-15.6,2.76-4.83-1.26-9.32-4.41-14.45-4.27-7.54,.21-9.89,9.88-13.01,16.13-.32,8.12-.71,16.23-1.27,24.34-.11,1.59-6.93,96.19-13.3,142.87-5.85,42.89-10.6,85.76-13.63,128.89,1.78-6.9,3.81-13.77,6.11-20.61,18.56-55.02,50.52-105.91,90.09-148.23,20.2-21.6,42.97-40.52,62.8-62.53,20.51-22.76,36.74-48.36,48.19-76.85,11.45-28.51,16.08-58.87,19.84-89.18,.51-4.09,1.09-8.17,1.62-12.25-4.7,.01-9.4-1.27-14-1.96-2.13-.32-4.6-.58-6.69-.07-2.88,.7-5.63,2.48-8.05,4.13-5.64,3.85-12.39,10.21-11.78,17.68,.21,2.53-3.77,1.31-4.21-.42-1.89-7.48,1.79-14.57,6.71-20.03,4.54-5.06,9.86-9.44,16.88-9.79,5.55-.28,11.82,1.62,16.67,1.83,.63,.03,1.26,.05,1.9,.03,.17,0,1.79-.19,1.09-.06,1.4-.26,1.4-.26,2.41-.94,.17-.11,.26-.32,.4-.47,3.3-25.12,6.8-50.21,10.55-75.27-1.96-4.05-2.7-8.6-4.59-12.73-1.86-4.08-4.86-6.52-8.89-8.25-7.31-3.14-15.53-5.84-20.65-12.09-1.44-.23-2.57-.75-4.46-1.27-1.58-.43-3.15-.91-4.73-1.36-2.86-.82-5.77-1.62-8.47-2.87-2.79-1.29-5.41-3.04-7.48-5.34-1.15-1.27-2.22-2.68-3.1-4.16-.99-1.67-1.45-3.59-2.28-5.33-.34-.72,.21-1.41,.9-1.54,.82-.15,1.75,.41,2.17,1.09,.96,1.58,2.3,2.8,3.49,4.2,.5,.59,1.03,1.16,1.58,1.71,.25,.24,.5,.48,.75,.71,.08,.06,.34,.29,.41,.34,.47,.37,.95,.73,1.45,1.06,.28,.19,.57,.37,.85,.55,.11,.07,.11,.08,.16,.11,.03,0,.02,0,.11,.04,.51,.22,.99,.48,1.5,.69,.26,.11,.51,.21,.77,.3,.06,.02,.43,.15,.62,.21,.17,.05,.4,.12,.45,.13,.32,.09,.64,.17,.96,.26,.56,.14,1.13,.27,1.7,.4,1.32,.29,2.66,.53,3.98,.79,1.48,.28,3.07,.58,4.65,.95-1.24-5.78-.14-11.82-.71-17.8-.63-6.52-3.44-15.25-11.56-12.8-1.85,.56-5.44-2.58-3.12-4.01,8.26-5.09,16.27,.42,20.56,7.97,2.18,3.85,3.51,7.98,4.03,12.37,.53,4.41,.1,8.98,.97,13.34,1.77,8.94,13.74,9.94,20.52,13.59,4.35,2.34,7.85,5.57,10.32,9.69,9.36-62.3,18.55-124.63,22.93-187.53,7.12-102.38,4.64-206.02,24.13-306.69h7.69c-17.08,118.97-10.12,240.19-22.88,359.61-7.25,67.87-18.04,135.3-26.69,203-7.05,55.17-10.07,113.83-38.46,162.75-3.63,4.98-7.4,9.86-11.18,14.72-2.56,27.02-5.85,53.88-4.7,81.15,.44,10.35,1.56,20.57,3.51,30.66,3.98,1.04,6.82,4.86,9.59,7.79,.99,1.05,1.99,2.09,3.05,3.08,.12,.11,.1,.11,.13,.14,.09,.05,.17,.1,.44,.27,.14,.09,.12,.09,.18,.13,.04,.02,.02,0,.08,.03,2.25,1.01,5.79,1.2,9.04,1.43,3.26,.23,6.48,.68,9.67,1.41,11.78,2.68,30.98,9.84,31.96,24.23,.2,2.93-4.34,1.5-4.85-.48-1.54-6.02-7.45-9.45-12.81-11.69-5.66-2.37-12.12-4.01-18.12-4.58-6.29-.6-12.83,.18-18.67-2.77-2.4-1.21-4.39-2.93-6.31-4.77,.16,.55,.27,1.11,.44,1.66,4.42,14.52,12.3,27.14,17.75,41.17,5.15,13.25,4.27,26.21-2.7,38.61-7.07,12.56-15.94,23.87-10.87,39.14,2.99,9.01,8.92,16.76,12.37,25.47,3.8,2.47,10.2,2.47,14.23,3.96,6.17,2.28,11.21,6.53,14.27,12.38,6.74,12.92-.06,27.19,3.81,40.65,3.23,11.24,15.64,14.87,21.77,24.05,7.11,10.65,4.87,22.68,.14,33.79-.61,1.44-2.89,.17-2.64-1.16,1.31-6.81,2.32-14.12,.41-20.93-1.81-6.46-6.54-10.43-11.87-14.07-8.49-5.81-16.02-12.42-18.74-22.74-1.52-5.78-1.87-11.84-2.09-17.79-.23-6.33,.6-14.37-2.94-19.96-2.83-4.46-9.12-4.27-13.72-5.91,.2,14.93-8.97,27.31-3.85,42.37,2.43,7.16,5.94,14,5.83,21.74-.13,8.44-5.26,15.31-7.03,23.35-2.91,13.16,.92,26.34,1.31,39.6,.21,.66,.39,1.32,.59,1.98,3.92,5.87,4.49,14.2,7.66,20.34,3.75,7.25,12.3,10.77,17.23,17.16,8.71,11.29,12.11,31.49,2.6,43.26-1.12,1.38-4.06-.32-3.51-1.98,4.83-14.54,.37-31.74-12.15-40.87-4.6-3.35-8.72-6.81-12.07-11.04-1.7,4.58-3.67,9.07-4.45,13.99-2.69,17.05,13.95,30.33,13.56,47.55-.38,16.9-15.09,24.51-23.16,37.42-4.54,7.26-5.52,14.9-.8,22.24,3.82,5.95,9.1,10.85,12.69,16.97,4.62,7.88,6.04,16.65,2.84,25.35-2.23,6.07-5.95,11.14-9.79,16.15-4.14,11.9-14.86,22.31-14.38,35.56,.26,7.36,4.01,13.94,6.19,20.82,2.18,6.88,2.89,13.61,1.37,20.72-3.57,16.73-18.1,29.34-14.51,47.42,1.94,9.78,5.86,18.37,5.65,28.55-.19,9.18-2.11,18.43-3.98,27.39-.7,3.36-6.03,.25-5.75-2.52,1-9.78,3.91-19.41,3.12-29.32-.81-10.16-6.33-19.11-7.07-29.24-1.28-17.47,14.73-28.92,16.44-45.55,1.08-10.53-5.39-19.75-9.66-29.51-.4,1.32-.73,2.66-.92,4.09-.66,4.97-.12,10.03-.02,15.01,.18,9.14-2.07,16.18-8.15,23.05-6.37,7.2-13.28,12.58-14.66,22.66-1.24,9.1,.56,17.93-2.13,26.88-.57,1.9-3.2,.2-3.39-1.1-1.36-9.44-2.99-19.32-2.23-28.9,.75-9.56,5.06-17.56,11.41-24.6,2.74-3.04,5.65-6.25,7.09-10.14,1.8-4.84,1.39-10.01,1.32-15.07-.14-10.03,1.04-19.9,7.37-28.11,.28-.37,.63-.57,.98-.79,1.11-11.97,9.59-22.72,17.69-32.31,5.37-12.25,11.46-24.13,2.16-36.66-6.98-9.4-14.07-17.68-13.87-28.48-1.56,.99-3.09,2.02-4.39,3.42-2.46,2.62-3.79,5.83-4.71,9.26-1.8,6.74-1.92,13.93-4.45,20.49-2.99,7.75-9.08,9.47-15.61,13.22-9.1,5.22-6.96,18.66-5.33,27.28,1.76,9.31,3.88,19.16,.45,28.41-2.21,5.96-7.02,9.54-11.63,13.6-7.98,7.04-11.75,14.86-11.92,25.56-.15,9.85,1.63,19.68,2.73,29.43,.24,2.13-3.15,.88-3.42-.72-3.04-18.42-11.32-40.66-.9-58.22,3.55-5.98,10.31-10.08,12.46-16.84,3.24-10.19-1.27-21.48-1.31-31.86-.02-4.51,.27-9.24,1.44-13.65-.65,.2-1.32,.35-2,.44-2.8,.37-5.5-.04-8.05-1.28-2.25-1.09-4.21-2.84-6.51-3.79-3.96-1.63-8.88,.36-11.9,3.01-3.47,3.05-6.18,6.98-8.9,10.68-1.07,1.46-3.78-.54-2.98-2.09,2.15-4.12,3.56-8.83,6.63-12.39,3.16-3.67,7.24-5.67,12.05-6.16,2.73-.28,5.3,.19,7.81,1.29,1.99,.88,3.9,2.55,6.02,3.08,4.7,1.19,8.76-4.87,12.35-6.82,1.6-.87,3.43-.47,4.87,.54,1.68-1.09,3.45-2.03,5.24-3.09,3.79-2.24,5.97-5.71,7.81-9.61,6.05-12.82,7.23-31.67,25.36-33.23,.27-.02,.59,.02,.93,.11,5.3-13.16,19.49-21.85,22.13-36.18,3.15-17.1-13.04-29.38-13.74-45.9-.43-10.16,5.5-18.49,7.94-27.94,1.4-5.44,.3-10.81,.16-16.33-.1-3.95,.17-7.78,.64-11.62-1.47-9.54-3.63-19.05-3.05-28.74,.46-7.69,3.31-14.55,5.42-21.86,2.38-8.22,.65-14.7-2.17-22.47-5.21-14.39-2.35-25.98,.25-40.49,2.78-15.51-7.98-26.28-13.22-39.82-4.71-12.17-1.92-24.63,3.93-35.9,7.21-13.88,15.61-25.13,9.97-41.45-4.89-14.13-13.25-26.64-17.69-41.05-4.43-14.37-7-29.48-8.4-44.43-2.16-23.14-1-47.97,4.79-71.15-11.32,13.94-22.92,27.66-34.25,41.6-22.09,23.49-44.99,46.33-65.05,71.54-37.08,46.6-72.28,102.56-82.77,161.97-.95,5.4-1.66,10.82-2.26,16.26-.28,.93-.51,1.87-.78,2.81,.04,10.59-.4,21.18-1.26,31.82-1.14,14.14-2.8,28.86-2.8,43.24,6.05,.2,12.74,3.66,16.79,6.79,5.65,4.36,10.01,10.6,16.84,12.23,4.06,.97,8.33,.46,12.61-.13,.2-.34,.47-.64,.81-.98-.39,.39-.46,.49-.09,.06,.42-.49,.84-.99,1.27-1.46,1.09-1.2,2.21-2.38,3.29-3.59,2.88-3.21,5.79-6.36,8.97-9.28,5.2-4.79,13.3-11.19,20.82-7.81,4.82,2.17,6.44,7.34,7.38,12.13,.37,1.9-2.76,.88-3.18-.32-.69-1.97-1.51-3.93-2.89-5.54-.67-.78-.59-.69-1.28-1.18-.08-.06-.26-.17-.4-.26-.11-.06-.25-.13-.36-.17-.15-.05-.19-.06-.2-.06-.16-.03-.4-.07-.47-.09-.23,0-.46,0-.69,0-.18,0-.27,0-.31,0,.03,0,.04,.01-.12,.05-.39,.09-.78,.19-1.16,.32-1.12,.38-2.31,1.08-3.63,2.04-5.91,4.28-10.33,9.92-15.23,15.53,7.09,1.12,11.51,5.82,13.48,13.14,.57,2.12-2.47,1.51-3.02,.05-1.42-3.72-3.51-7.27-7.83-7.7-3.15-.31-6.39,.81-9.27,1.92-6.71,2.58-13.43,4.47-20.56,2.25-7.28-2.26-12.77-7.38-18.3-12.39-1.9-1.72-4.31-3.59-6.75-4.69-2.08-.95-4.21-1.22-6.35-1.5,.49,7.73,2.59,14.53,7.37,20.68,3.84,4.94,7.92,9.64,10.51,15.41,4.93,10.98,2.28,23.39-1.37,34.32-.84,2.51-1.7,5.02-2.44,7.53,2.39,1.53,4.46,3.52,6.22,5.97,2.51,3.49,4.34,7.33,7.65,10.19,2.56,2.22,5.3,2.65,8.99,3.19,4.88,.71,9.5,1.56,14.06,3.52,8.94,3.84,16.89,10.46,21.03,19.39,4.09,8.83,3.14,18.48-1.77,26.75-.52,.87-2.34-.24-1.98-1.12,3.62-8.96,3.04-18.51-3.05-26.25-4.26-5.41-10.32-9.18-16.87-11.23,.02,.77,.02,1.54,.05,2.29,.09,2.66,.08,5.32,.1,7.98,.05,5.46,.2,10.98,1.38,16.33,.59,2.67-3.17,1.98-3.8,.07-1.79-5.44-2.67-11.11-3.35-16.78-.32-2.64-.59-5.29-.94-7.93-.16-1.21-.32-2.42-.55-3.62-6.4-1-12.61-1.53-18.04-5.83-3.62-2.86-6.67-6.3-9.12-10.2-.65-1.03-1.26-2.13-1.93-3.15-.3,3.83,.08,7.7,1.72,11.64,2.78,6.7,7.91,12.05,10.73,18.75,2.37,5.65,2.92,11.47,1.97,17.49-.96,6.04-3.53,11.54-5.38,17.31-2.6,8.12-.4,15.45,3.39,22.76,2.85,5.48,6,10.89,7.67,16.88,2.21,7.93,1.17,15.66-.31,23.6-1.38,7.39-4.39,18.23-.71,25.45,2.71,5.33,10.04,8.27,14.13,12.58,2.69,2.83,4.57,5.77,5.88,8.78,8.81,3.11,17.82,8.06,22.5,15.49,3.78,5.99,5.04,12.5,3.71,19.42-1.19,6.2-5.35,12.81-3.44,19.25,1.72,5.79,6.67,10.43,9.86,15.41,3.3,5.14,5.4,10.76,5.21,16.93-.44,14.07-8.29,27.54-15.2,39.38-1.13,1.93-5.08-.52-4.34-2.45,4.48-11.76,11-24.18,10.94-37.06-.06-13.2-12.34-18.9-17.25-29.94-2.23-5.02-2.64-10.33-1.02-15.6,1.7-5.57,5.36-10.62,6-16.48,1.09-9.9-6.87-13.63-14.99-16.79,.91,7.56-1.07,15.5-4.22,23.62-2.02,5.21-10.99,.54-9.58-4.2,1.9-6.4,3.6-13.62,2.08-20.31-1.2-5.3-4.63-8.88-8.5-12.17-2.01,7.06-7.11,12.78-8.61,20.04-2.31,11.24,4.29,23.17,10.49,32.1,4.56,6.57,8.94,13.93,8.31,22.24-.61,8.12-6.53,14.2-8.24,21.99-4.29,19.58,11.95,36.38,18.03,53.66,6.26,17.79,2.77,35.81-2.09,53.42-.52,1.89-3.71,.2-3.35-1.47,4.08-19.08,1.2-41.94-8.06-59.08-8.21-15.2-19.54-33.03-15-51.12,1.85-7.37,8.1-13.68,8.31-21.38,.25-9.32-8.25-17.28-11.55-25.59-3.27-8.23-6.08-18.98-3.62-27.73,2.2-7.85,7.98-14.08,9.42-22.18-8.48-7.97-10.11-16.76-7.65-28.82,1.67-8.21,4.88-16.22,4.51-24.74-.37-8.29-4.58-15.18-8.2-22.38-5.31-10.56-6.49-21.21-5.23-32.51-4.91,5.63-10.86,10.73-14.42,15.21-14.35,18.08-3.88,39.22-1.36,59.31,.28,2.19-3.38,1.2-3.73-.37-4.45-19.9-16.47-40.05-5.43-60.19,3.79-6.92,10.05-12.05,15.29-17.82,2.64-2.91,5.19-6.04,6.89-9.62,1.78-3.75,1.78-7.84,3.29-11.63,.04-.1,.1-.15,.15-.24-2.67-5.73-7.42-10.58-9.92-16.42-4.01-9.34-2.85-16.36,1.63-24.27,.17-.63,.46-1.14,.91-1.53,.25-.41,.46-.81,.73-1.22,6.64-10.36,12.6-24.44,4.88-35.94-3.38-5.03-8.36-8.83-12.13-13.57-1.46-1.83-2.72-3.74-3.9-5.68-3.05,1.4-6.32,2.14-9.47,3.29-10.17,3.73-8.9,15.75-9.17,24.6-.08,2.59-3.72,1.01-3.99-.84-1.4-9.77-3.72-22.34,5.65-29.05,3.21-2.3,7.03-3.26,10.6-4.82,.14-.06,.26-.11,.74-.36,.34-.18,.68-.38,1-.59,.23-.15,.44-.32,.66-.49-.69-1.92-1.29-3.9-1.73-5.97-3.13-14.81-1.32-31.22,.25-46.63-.69-9.27-1.18-18.55-1.47-27.83-1.89,0-3.79-.22-5.61-.49-4.32-.65-7.29-1.63-11.41-.97-5.33,.85-9.79,3.34-13.16,7.57-3.75,4.71-6.42,10.27-9.75,15.27-1.78,2.67-6.49-.95-5.23-3.66,4.43-9.48,7.54-20.12,17.81-24.9,4.8-2.24,9.77-2.76,14.97-2.11,2.02,.25,4.02,.63,6.03,.92,1.78,.25,2.82,.4,4.91,.26,.4-.03,.8-.17,1.2-.28-.22-13.19-.03-26.38,.69-39.54,4.77-87.07,22.6-172.83,28.46-259.7-3.71,1.4-8.06,1.89-11.21,4.5-15.34,12.68-1.2,36.95-16.02,49.83-5.58,4.85-17.29,6.24-16.09,15.59,.97,7.53,6.48,13.72,5.72,21.64-.8,8.37-7.12,10.93-13.34,14.86-9.5,6-5.37,21.65-7.84,31.17-.91,3.51-6.62,.63-6.61-2.14,.02-9.16-2.04-21.92,2.5-30.38,3.55-6.62,14.37-8.83,14.72-17.19,.22-5.29-2.94-10.26-4.85-15.38-3.01,1.56-6.36,2.24-9.48,3.52-.44,.18-.88,.36-1.31,.55,.65-.29-.59,.32-.71,.4-.72,.42-1.42,.91-2.02,1.5-1.1,1.11-2.39,3.26-3.19,4.96-1.84,3.87-3.5,7.93-5.03,11.94-.56,1.47-2.73,.29-2.82-.91-.63-8.29-.28-18.83,6.93-24.43Z"/>
              <g>
                <polygon class="cls-12" points="157.99 107.33 254.46 18.35 838.74 529.55 87.58 823.8 157.99 107.33"/>
                <g>
                  <g>
                    <path class="cls-9" d="M58.19,566.28c6.27-7.41,11.86-15.75,13.95-25.23,8.21-37.14-30.45-76.67-37.99-111.96-6.85-32.06,4.03-84.08,41.7-91.31-.54-1.1-1.07-2.2-1.59-3.28-5.77-12.11-10.43-24.76-13.76-37.76-6.53-25.54-6.76-52.11,.11-77.62,6.75-25.1,19.64-48.94,35.81-69.21,15.55-19.49,34.6-35.85,49.98-55.45,3.68-15.06,9.02-29.83,8.99-45.42-.05-21.6-7.45-41.72-12.43-62.4h113.53c3.14,6.98,4.91,14.44,6.45,22.23,3.77,19.12,5.83,38.99,4.98,58.49-1.21,27.62-9.29,53.98-26.6,75.86-22.69,28.7-66.36,49.8-71.95,89.47-4.69,33.26,36.46,40.11,57.74,53.38,31.02,19.34,43.48,59.11,37.19,94.33-3.21,18.02-11.3,35.47-24.49,48.36-18.43,18.01-37.11,15.57-60.07,22.44,5.74,15.34,18.7,26.99,22.84,43.27,5.72,22.51,3.72,46.41-7.01,67.17-16.2,31.34-58.34,57.41-53.73,96.56,2.58,21.91,20.21,34.97,33.91,50.24,15.92,17.75,26.27,39.44,27.54,63.49,.96,18.17-3.33,36.54-11.95,52.54-8.25,15.32-25.12,29.45-26.8,47.63-.61,6.56,1.2,13.08,2.06,19.61,.17,1.32,.21,2.57,.25,3.82H43c.98-9.88,5.78-20.61,12.61-30.79,16.07-23.94,27.83-49.21,21.69-78.75-7.12-34.26-35.38-56.39-52.91-84.42-6.96-11.14-12.23-23.21-13.8-37.34-4.91-44.24,21.69-67.33,47.59-97.93Z"/>
                    <path class="cls-10" d="M148.8,841.19c8.1-14.73,17.79-29.11,22.67-45.34,4.81-16,2.68-31.74-4.06-46.82-6.09-13.63-14.96-25.76-23.56-37.87-16.27-22.92-34.1-50.2-26.82-79.73,6.36-25.78,27.11-45.34,40.79-67.27,6.99-11.22,12.58-23.45,14.23-36.67,1.32-10.54-.79-20.88-3.8-30.96-7.33-24.53-19.38-47.6-24.69-72.76-2.21-10.49-3.23-21.84,.51-32.1,1.83-5.03,4.93-9.38,8.82-13.02,2.08-1.95,6.33-6.14,9.41-3.81,2.78,2.11,3.94,6.8,5.07,9.9,1.65,4.56,3.22,9.23,5.66,13.45,2.86,4.93,7.71,9.07,13.17,11.56,.14,.55,.49,1.07,1.15,1.42,3.24,1.74,6.66,3.04,10.33,3.47,14.72,1.71,24.67-11.88,29.94-23.79,5.53-12.49,9.5-27.73,7.89-41.49-1.68-14.28-8.2-26.33-18.35-36.41-10.31-10.24-22.77-18.01-34.61-26.33-11.16-7.84-22.66-16.47-29.68-28.42-8.2-13.96-7.94-31.15-2.05-45.95,7.89-19.85,25.6-32.96,40.92-46.83,18.08-16.36,31.79-36.9,41.07-59.44,9.17-22.29,12.81-46.56,10.53-70.55-1.6-16.79-5.87-33.09-11.85-48.78h25.01c3.14,6.98,4.91,14.44,6.45,22.23,3.77,19.12,5.83,38.99,4.98,58.49-1.21,27.62-9.29,53.98-26.6,75.86-22.69,28.7-66.36,49.8-71.95,89.47-4.69,33.26,36.46,40.11,57.74,53.38,31.02,19.34,43.48,59.11,37.19,94.33-3.21,18.02-11.3,35.47-24.49,48.36-18.43,18.01-37.11,15.57-60.07,22.44,5.74,15.34,18.7,26.99,22.84,43.27,5.72,22.51,3.72,46.41-7.01,67.17-16.2,31.34-58.34,57.41-53.73,96.56,2.58,21.91,20.21,34.97,33.91,50.24,15.92,17.75,26.27,39.44,27.54,63.49,.96,18.17-3.33,36.54-11.95,52.54-8.25,15.32-25.12,29.45-26.8,47.63-.61,6.56,1.2,13.08,2.06,19.61,.17,1.32,.21,2.57,.25,3.82h-34.06c.07-1.77,.14-3.53,.29-5.3,1.45-17.37,7.34-33.83,15.7-49.03Z"/>
                    <path class="cls-10" d="M58.19,566.28c6.27-7.41,11.86-15.75,13.95-25.23,8.21-37.14-30.45-76.67-37.99-111.96-6.85-32.06,4.03-84.08,41.7-91.31-.54-1.1-1.07-2.2-1.59-3.28-5.77-12.11-10.43-24.76-13.76-37.76-6.53-25.54-6.76-52.11,.11-77.62,6.75-25.1,19.64-48.94,35.81-69.21,15.55-19.49,34.6-35.85,49.98-55.45,3.68-15.06,9.02-29.83,8.99-45.42-.05-21.6-7.45-41.72-12.43-62.4h33.48c.27,.67,.58,1.33,.83,2.02,11.12,29.41,8.45,62.11-.55,91.7-9.09,29.89-24.64,56.36-43.92,80.72-19.95,25.21-40.43,52.42-48.64,84.06-3.95,15.22-4.49,31.3-.08,46.48,2.01,6.91,4.77,14.37,9.3,20.06,2.47,3.1,5.87,5.54,10.01,4.84,8.27-1.4,13.29-10.75,20.68-14.18,3.72-1.73,8.78-2.16,12.55-.3,3.13,1.54,4.46,4.82,4.83,8.13,1.06,9.53-3.24,19.87-7.59,28.1-2.13,4.03-4.54,8.01-7.52,11.47-3.24,3.76-7.23,5.91-11.68,8.06-10.91,5.25-23.42,8.49-31.89,17.68-11.05,11.98-13.14,30.1-10.99,45.62,4.94,35.71,29.67,65.35,35.42,100.85,2.81,17.39-1.23,34.95-11.7,49.19-4.38,5.95-9.41,11.37-14.54,16.7-.28,.06-.57,.16-.87,.36-10.66,7.27-20.19,16.43-26.16,28-5.09,9.85-7.36,20.88-7.01,31.94,.68,21.92,10.47,41.53,21.22,60.11,6.74,11.65,13.77,23.18,19.47,35.38,5.8,12.39,9.96,25.61,11.88,39.18,5.9,41.84-15.87,78-36.95,112.72h-19.54c.98-9.88,5.78-20.61,12.61-30.79,16.07-23.94,27.83-49.21,21.69-78.75-7.12-34.26-35.38-56.39-52.91-84.42-6.96-11.14-12.23-23.21-13.8-37.34-4.91-44.24,21.69-67.33,47.59-97.93Z"/>
                    <path class="cls-7" d="M186.71,557.03c9.28-17.97,11.49-39.32,6.19-60.11-1.87-7.35-6.24-14.02-10.87-21.07-4.02-6.12-8.12-12.48-11.07-19.82-4.36-10.87-14.28-18.26-18.43-29.36-4.95-13.23-4.84-30.04,1.26-42.82,1.46-3.05,5.98,.98,5.78,3.25-.59,6.63,.27,13.57,1.01,20.16,2.59,22.87,13.86,34.04,36.49,29.71,13.91-2.65,24.9-4.75,35.76-15.37,10.91-10.67,18.59-25.93,21.64-42.97,6.02-33.77-7.4-68.35-32.64-84.09-4.65-2.9-10.71-5.6-17.12-8.47-16.89-7.54-38.75-17.35-44.34-37.77-1.34-1.7-2.55-3.4-3.61-4.97-4.78-7.06-7.93-15.32-9.21-23.75-1.29-8.52,.28-16.67,3.57-24.54,1.51-3.62,3.38-7.05,5.1-10.57,1.65-3.38,2.79-8.31,5.36-11.01,1.05-1.1,2.84-.15,3.31,1.09,2.31,6.14-.96,14.78-2.57,20.8-2.03,7.61-4.18,14.95-3.22,22.93,.29,2.46,.82,4.85,1.45,7.21,6.18-26.97,27.6-45.86,46.65-62.65,9.9-8.73,19.27-16.98,26.28-25.85,15.02-18.99,23.24-42.57,24.45-70.1,.76-17.27-.86-36.15-4.8-56.12-1.99-10.06-4.06-17.61-7.84-24.16h22.02c2.57,6.78,4.13,13.64,5.44,20.29,4.25,21.53,5.98,42.01,5.16,60.86-1.4,31.81-11.06,59.27-28.74,81.63-8.12,10.28-18.6,19.51-28.74,28.45-19.51,17.19-37.94,33.44-41.15,56.22-2.32,16.44,11.14,23.72,33.59,33.74,7.06,3.15,13.72,6.13,19.54,9.76,32.51,20.27,49.29,62.29,41.74,104.57-3.77,21.11-13.48,40.2-27.34,53.76-15.18,14.84-30.84,17.82-45.99,20.71-2.15,.41-4.34,.82-6.54,1.28,1.4,2.3,2.91,4.61,4.47,6.98,5.33,8.12,10.84,16.52,13.54,27.11,6.5,25.55,3.72,51.9-7.82,74.23-6.11,11.81-15.34,22.66-24.28,33.15-15.9,18.68-30.92,36.32-28.41,57.64,1.65,14.05,11.73,24.34,22.39,35.24,3.07,3.13,6.14,6.27,9.03,9.49,18.35,20.45,28.75,44.54,30.08,69.64,1.05,19.92-3.49,39.91-13.13,57.8-3.18,5.92-7.35,11.45-11.37,16.81-6.9,9.19-13.43,17.87-14.27,27-.31,3.4,.37,7.32,1.08,11.47,.34,1.97,.68,3.94,.94,5.92,.23,1.73,.32,3.43,.35,5.12h-20.05c-.03-.83-.01-1.64-.13-2.51-.22-1.71-.52-3.42-.82-5.13-.86-5-1.84-10.68-1.28-16.71,1.37-14.77,10.31-26.67,18.2-37.17,3.74-4.99,7.28-9.69,9.75-14.28,7.9-14.67,11.62-31.01,10.76-47.27-.21-3.89-.77-7.75-1.52-11.58-1.19,.21-2.38,.37-3.52,.44-6.58,.42-13.43-1.46-19.48-3.86-6.01-2.38-11.9-5.81-17-9.76-4.45-3.44-8.63-7.28-10.98-12.44-.86-1.89,1.57-2.84,2.98-2.09,8.94,4.75,16,9.82,25.96,13.34,2.03,.72,3.56,1.23,6.34,1.81,2.97,.62,3.58,.72,6.69,.64,.52-.01,1.03-.05,1.55-.08,.25-.02,.5-.04,.81-.08,1.05-.2,2.09-.48,3.1-.84-4.2-11.63-10.86-22.73-19.92-32.83-2.7-3.02-5.57-5.93-8.43-8.86-15.58-15.92-29.76-34.65-28.25-58.11,1.56-24.34,18.22-43.98,33.32-61.72,8.58-10.08,16.68-19.59,21.74-29.37Z"/>
                    <path class="cls-7" d="M40.85,571.03c3.2-3.66,6.46-7.37,9.71-11.2,6.64-7.84,10.39-14.49,11.81-20.93,4.23-19.15-7.47-41.21-18.8-62.55-7.85-14.81-15.98-30.12-19.2-45.17-4.66-21.82-2.36-54.4,13.27-77.99,6.5-9.81,14.79-17.07,24.38-21.44-4.65-10.68-8.41-21.59-11.21-32.55-7.05-27.57-7-56.16,.14-82.69,6.81-25.32,19.83-50.51,37.65-72.84,7.9-9.9,16.66-19.01,25.12-27.82,8.37-8.7,16.3-16.96,23.5-25.92,.75-2.93,1.54-5.86,2.33-8.78,3.02-11.08,5.86-21.55,5.83-32.1-.03-14.85-3.93-29.15-8.05-44.3-1.58-5.82-3.22-11.83-4.62-17.89-.02-.08-.03-.16-.04-.24h20.59c1.08,4.31,2.22,8.64,3.37,12.87,6.1,22.45,10.3,46.32,6.83,69.57-3.92,26.23-17.68,42.29-35.32,60.64-8.53,8.87-16.58,17.25-23.91,26.43-10.43,13.07-18.99,27.18-25.42,41.66,5.93-1.46,11.44-3.9,16.84-6.77,6.03-3.21,11.74-7,17.37-10.86,4.88-3.34,9.89-6.62,14.47-10.37,1.44-1.18,3.88,1.12,3.1,2.66-6.27,12.39-16.99,22.37-29.02,29.17-6.25,3.53-13.07,6.69-20.2,7.84-2.37,.38-4.89,.61-7.42,.59-1.37,3.88-2.64,7.76-3.69,11.65-5.89,21.9-5.77,44.92-1.1,67.04,4.3,20.37,7.11,45.98,32.38,39.92,10.52-2.52,19.2-9.01,22.11-20.02,.58-2.2,3.72-.23,3.91,1.27,.02,.13,0,.25,.02,.37,7.08,9.46,2.07,21.8-6.1,28.85-7.47,6.45-16.85,8.26-26.43,7.8-43.13-2.08-59.04,42.98-51.12,80.07,2.63,12.32,9.76,25.76,17.31,39.98,13.02,24.54,26.48,49.9,20.66,76.24-2.15,9.73-7.26,19.11-16.08,29.53-3.32,3.92-6.65,7.73-9.93,11.47-21.87,24.95-39.15,44.65-35.35,78.9,1.24,11.13,5.16,21.66,12.34,33.14,5.53,8.84,12.19,17.06,19.24,25.77,14.62,18.05,29.74,36.71,34.98,61.92,.59,2.84,.98,5.62,1.28,8.39,.42-.15,.84-.26,1.25-.42,.53-.21,1.05-.42,1.58-.64,.64-.28,.69-.31,.16-.07,.26-.13,.51-.26,.77-.39,1.11-.57,2.19-1.2,3.24-1.88,2.2-1.41,4.25-3.03,6.16-4.82,.15-.14,.32-.3,.87-.86,.41-.42,.83-.84,1.23-1.26,.94-1,1.83-2.04,2.67-3.12,1.54-1.97,2.99-4.05,4.24-6.21,2.43-4.16,4.42-8.57,5.62-13.24,.34-1.33,1.88-1.49,2.98-1.15,1.41,.44,2.33,1.54,2.63,2.96,2.39,11.63-1.78,23.98-9.89,32.53-6.39,6.73-14.34,11.41-23.15,12.76-1.41,25.25-13.46,46.85-24.82,63.78-6.21,9.26-9.88,17.96-10.84,25.22h-20.11c.86-11.09,5.63-23.38,14.35-36.36,13.21-19.68,25.94-43.52,20.2-71.15-4.25-20.45-17.21-36.46-30.94-53.4-7.12-8.79-14.48-17.88-20.65-27.75-8.83-14.11-13.68-27.31-15.26-41.53-4.77-43.01,17.07-67.92,40.19-94.29Z"/>
                  </g>
                  <g>
                    <path d="M135.1,511.01c4.94-21.8-3.59-34.57-12.61-48.09-8.58-12.85-17.45-26.14-16.66-48.89,1-28.54,16.42-41.28,32.75-54.77,10.29-8.5,20.94-17.3,27.92-30.39,4.65-8.73,5.57-17.33,2.71-25.57-6.32-18.25-28.69-28.27-29.64-28.68l-1.01,2.28c.22,.1,22.33,10.01,28.29,27.22,2.61,7.55,1.75,15.48-2.56,23.57-6.75,12.65-17.2,21.28-27.3,29.64-16.04,13.24-32.62,26.94-33.65,56.6-.82,23.55,8.69,37.8,17.08,50.36,9.1,13.63,16.96,25.4,12.25,46.15l2.44,.56Z"/>
                    <path d="M63.25,397.51c.01-.16,1.52-15.26,10.75-22.85,4.12-3.38,9.22-4.8,15.17-4.19,19.75,2.03,19.94,17.77,19.94,18.44h2.5c0-.17-.13-18.66-22.18-20.93-6.61-.65-12.36,.92-17.02,4.75-10.04,8.26-11.58,23.88-11.64,24.54l2.49,.23Z"/>
                    <path d="M130.3,214.7l2.42-.62c-.07-.28-6.96-28.94,24.1-56.24l4.4-3.86c30.17-26.46,56.23-49.32,54.07-77.89l-2.49,.19c2.06,27.33-23.56,49.8-53.24,75.82l-4.4,3.86c-16.83,14.8-22.7,29.93-24.67,40.02-2.14,11-.28,18.42-.2,18.73Z"/>
                    <path d="M97.7,888.69c.51-.48,12.5-12.16,16.4-34.97l.59-3.5c3.12-18.64,8.94-53.35,22.94-60.4,3.71-1.87,7.73-1.65,12.26,.66,6.41,3.28,10.29,7.78,11.52,13.38,2.71,12.29-7.96,26.06-8.06,26.2l1.96,1.54c.47-.6,11.5-14.86,8.54-28.28-1.4-6.37-5.72-11.44-12.83-15.07-5.21-2.66-10.1-2.89-14.52-.67-15.14,7.62-20.86,41.8-24.29,62.22l-.59,3.49c-3.75,21.95-15.55,33.47-15.66,33.59l1.73,1.81Z"/>
                    <path d="M114.26,722.31l1.65-1.88c-.44-.39-44.1-39.14-32.03-74.95,5.38-15.97,15.11-30.51,23.69-43.33,11.47-17.13,21.38-31.94,18.13-45.27l-2.43,.6c2.99,12.26-6.63,26.64-17.77,43.29-8.67,12.95-18.5,27.63-23.99,43.92-5.23,15.53-1.2,33.9,11.66,53.13,9.64,14.42,20.98,24.4,21.09,24.51Z"/>
                    <polygon points="225.78 91.1 202.56 86.13 218.16 58.49 225.78 91.1"/>
                    <polygon points="153.74 266.89 141.85 287.45 120.36 264.08 153.74 266.89"/>
                    <polygon points="50.23 389.22 73.79 392.21 60.59 421.08 50.23 389.22"/>
                    <polygon points="131.12 577.76 108.72 569.86 127.73 544.43 131.12 577.76"/>
                    <polygon points="148.75 813.93 169.58 825.34 146.73 847.37 148.75 813.93"/>
                  </g>
                </g>
              </g>
            </g>
          </g>
        </g>
      </g>
    </g>
  </g>
</svg>